<svg viewBox="0 0 25 25" xmlns="http://www.w3.org/2000/svg">
<path d="M19.7402 16.8315C19.6631 17.2366 19.5294 17.6289 19.3429 17.9967C19.1506 18.3728 18.907 18.7204 18.6191 19.0295C18.1616 19.517 17.6087 19.9052 16.9948 20.1698C16.6794 20.3121 16.3513 20.4245 16.0149 20.5052C15.6755 20.5845 15.33 20.6347 14.9821 20.6553C14.6319 20.6756 14.2808 20.6697 13.9316 20.6377C13.6088 20.6138 13.2876 20.5725 12.9693 20.5141C12.5504 20.4329 12.1375 20.3233 11.7335 20.186C11.633 20.1536 11.2307 20.023 10.7095 19.8064C10.3567 19.6593 9.91937 19.461 9.42944 19.1973C9.45702 18.9527 9.503 18.5271 9.53537 18.0673C9.55928 17.7337 9.56847 17.4884 9.57215 17.4317C9.57693 17.307 9.57951 17.2011 9.58098 17.1228C9.57951 15.5887 9.57816 14.0544 9.57693 12.5199C9.57546 10.6732 9.57387 8.82646 9.57215 6.97976C9.27959 7.07564 8.98194 7.15522 8.68056 7.2181C8.16781 7.32514 7.78344 7.3553 7.04743 7.41231C6.54977 7.44909 6.1529 7.46675 5.89101 7.47411C5.57799 7.48293 5.30617 7.48441 5.08769 7.48293L5.07886 7.96846C5.27601 7.9596 5.47352 7.96254 5.67032 7.97728C5.7652 7.98316 5.85958 7.99545 5.9528 8.01407C6.10874 8.04895 6.25921 8.10489 6.40007 8.18032C6.55014 8.26014 6.64872 8.31237 6.74435 8.41867C6.85752 8.54821 6.93106 8.70755 6.95621 8.87771L6.93304 14.0242C4.75586 15.0202 2.39403 15.5486 0 15.5753V7.1747C0 3.21217 3.21217 0 7.1747 0H16.9113C16.552 3.83004 14.9149 7.42789 12.2631 10.2147V12.4353C12.5175 12.238 12.7928 12.0692 13.0841 11.9321C13.3458 11.8115 13.6175 11.714 13.8962 11.6408C14.1504 11.5672 14.3744 11.5058 14.6819 11.473C15.0784 11.4307 15.3841 11.4642 15.7059 11.4995C15.9413 11.5214 16.1748 11.5597 16.4048 11.6143C16.7576 11.6983 17.0986 11.8258 17.42 11.9939C17.6635 12.1282 17.894 12.2848 18.1085 12.4617C18.3506 12.6435 18.5752 12.8474 18.7794 13.0709C19.3128 13.6715 19.5169 14.3082 19.6092 14.6069C19.7141 14.9514 19.7792 15.3069 19.8034 15.6662C19.8312 16.0557 19.81 16.4472 19.7402 16.8315Z" fill="white"/>
<path d="M8.00156 6.05432C9.0002 6.05432 9.80976 5.24476 9.80976 4.24612C9.80976 3.24747 9.0002 2.43791 8.00156 2.43791C7.00292 2.43791 6.19336 3.24747 6.19336 4.24612C6.19336 5.24476 7.00292 6.05432 8.00156 6.05432Z" fill="#5856D6"/>
<path d="M25 7.1747V17.8253C25 21.7878 21.7878 25 17.8253 25H7.1747C3.21217 25 0 21.7878 0 17.8253V15.5753C2.39453 15.5488 4.75688 15.0204 6.93451 14.0242L6.95769 8.87771C6.93253 8.70755 6.85899 8.54821 6.74582 8.41867C6.65019 8.31237 6.55161 8.26014 6.40154 8.18032C6.25983 8.10412 6.10835 8.04769 5.95133 8.01259C5.85811 7.99397 5.76373 7.98168 5.66884 7.97581C5.47205 7.96107 5.27454 7.95813 5.07739 7.96698L5.08622 7.48146C5.3047 7.48146 5.57652 7.48146 5.88954 7.47263C6.15142 7.46528 6.5483 7.44946 7.04596 7.41084C7.7816 7.35383 8.16634 7.32367 8.67908 7.21663C8.98047 7.15374 9.27812 7.07417 9.57068 6.97828C9.57215 8.82523 9.57374 10.6719 9.57546 12.5184C9.57693 14.0524 9.57828 15.5867 9.57951 17.1213C9.57951 17.1996 9.57546 17.3052 9.57068 17.4303C9.56847 17.4869 9.55928 17.7322 9.5339 18.0659C9.50116 18.5256 9.45555 18.9512 9.42797 19.1958C9.9179 19.4595 10.3552 19.6581 10.708 19.8049C11.2292 20.0216 11.6316 20.1521 11.732 20.1845C12.136 20.3213 12.549 20.4305 12.9679 20.5111C13.2866 20.5696 13.6083 20.6109 13.9316 20.6347C14.2808 20.6668 14.6319 20.6727 14.9821 20.6524C15.33 20.6318 15.6755 20.5816 16.0149 20.5023C16.3508 20.4219 16.6784 20.3101 16.9933 20.1683C17.6072 19.9037 18.1601 19.5156 18.6176 19.0281C18.9055 18.719 19.1491 18.3714 19.3415 17.9952C19.5279 17.6274 19.6616 17.2351 19.7387 16.83C19.808 16.4457 19.8288 16.0542 19.8005 15.6647C19.7763 15.3054 19.7111 14.95 19.6063 14.6054C19.514 14.3067 19.3098 13.67 18.7765 13.0694C18.5723 12.8459 18.3477 12.642 18.1056 12.4603C17.891 12.2833 17.6605 12.1267 17.417 11.9924C17.0965 11.8251 16.7565 11.6981 16.4048 11.6143C16.1748 11.5597 15.9413 11.5214 15.7059 11.4995C15.3841 11.4627 15.0784 11.4307 14.6819 11.473C14.3748 11.5058 14.1504 11.569 13.8962 11.6408C13.6175 11.714 13.3458 11.8115 13.0841 11.9321C12.7928 12.0692 12.5175 12.238 12.2631 12.4353V10.2147C14.9149 7.42789 16.552 3.83004 16.9113 0H17.8253C21.7878 0 25 3.21217 25 7.1747Z" fill="#5856D6"/>
<path d="M12.2808 18.0055C12.3286 18.3317 12.4428 18.6447 12.6162 18.9251C12.7211 19.0935 13.0576 19.6346 13.702 19.8446C13.9742 19.9329 14.2129 19.9329 14.4524 19.9329C14.7036 19.9329 14.985 19.9329 15.2712 19.8277C15.8505 19.614 16.1385 19.0818 16.2797 18.8206C16.4942 18.4245 16.5453 18.0938 16.6328 17.5332C16.7008 17.0805 16.7274 16.6225 16.7123 16.165C16.7049 15.7372 16.6976 15.2903 16.5799 14.726C16.4166 13.9411 16.3044 13.4037 15.8358 12.9995C15.3536 12.5839 14.7717 12.5482 14.5852 12.5368C14.3987 12.5254 13.833 12.4982 13.2978 12.8369C12.5989 13.2783 12.4044 14.0533 12.265 14.6113C12.1329 15.1391 12.1392 15.5452 12.1502 16.2885C12.1582 16.863 12.2018 17.4365 12.2808 18.0055Z" fill="#5856D6"/>
</svg>
